<svg xmlns="http://www.w3.org/2000/svg" data-name="Layer 1" viewBox="0 0 752.641 585.464"><path d="M0 298.383V4.818A4.823 4.823 0 0 1 4.818 0H425.9a4.823 4.823 0 0 1 4.818 4.818v293.565a4.823 4.823 0 0 1-4.818 4.818H4.818A4.823 4.823 0 0 1 0 298.383Z" fill="#fff"/><path d="M0 298.383V4.818A4.823 4.823 0 0 1 4.818 0H425.9a4.823 4.823 0 0 1 4.818 4.818v293.565a4.823 4.823 0 0 1-4.818 4.818H4.818A4.823 4.823 0 0 1 0 298.383ZM4.818 1.927a2.894 2.894 0 0 0-2.89 2.89v293.566a2.894 2.894 0 0 0 2.89 2.89H425.9a2.894 2.894 0 0 0 2.89-2.89V4.818a2.894 2.894 0 0 0-2.89-2.89Z" fill="#e6e6e6"/><path data-name="feda1070-6288-4949-b833-330f4749d65f" d="M178.723 29.87a3.82 3.82 0 0 1 0 7.638H82.954a3.82 3.82 0 1 1-.125-7.639h.125Z" fill="#e4e4e4"/><path d="M61.236 28.806a.752.752 0 0 1 0 1.063l-3.226 3.226h7.956a.752.752 0 0 1 .004 1.504h-7.96l3.226 3.226a.752.752 0 1 1-1.062 1.064v-.001l-4.51-4.51a.752.752 0 0 1 0-1.063l4.51-4.51a.752.752 0 0 1 1.062 0ZM200.482 28.806a.752.752 0 0 0 0 1.063l3.226 3.226h-7.956a.752.752 0 1 0-.004 1.504h7.96l-3.226 3.226a.752.752 0 0 0 1.062 1.064v-.001l4.51-4.51a.752.752 0 0 0 0-1.063l-4.51-4.51a.752.752 0 0 0-1.062 0Z" fill="#e6e6e6"/><path data-name="feda1070-6288-4949-b833-330f4749d65f" d="M178.723 254.554a3.82 3.82 0 0 1 0 7.64H82.954a3.82 3.82 0 1 1-.125-7.64h.125ZM386.723 109.54a3.82 3.82 0 0 1 0 7.638h-95.769a3.82 3.82 0 1 1-.125-7.639h.125ZM386.723 136.54a3.82 3.82 0 0 1 0 7.638h-95.769a3.82 3.82 0 1 1-.125-7.639h.125ZM386.723 163.54a3.82 3.82 0 0 1 0 7.638h-95.769a3.82 3.82 0 1 1-.125-7.639h.125Z" fill="#e4e4e4"/><path d="M323.62 205.279a13.078 13.078 0 1 1 13.078 13.077 13.078 13.078 0 0 1-13.078-13.077Z" fill="#6c63ff"/><path d="M331.538 203.989h3.87v-3.87a1.29 1.29 0 0 1 2.58-.005v3.875h3.87a1.29 1.29 0 0 1 0 2.58h-3.87v3.87a1.29 1.29 0 0 1-2.58 0v-3.87h-3.87a1.29 1.29 0 1 1-.005-2.58h.005Z" fill="#fff"/><path fill="#e6e6e6" d="m60.221 204.42 157.13-128.757.814.994-157.13 128.757z"/><path fill="#e6e6e6" d="m60.24 76.631.817-.991 157.089 129.448-.817.992z"/><path d="M58.05 202.348V78.37a4.502 4.502 0 0 1 4.498-4.497h152.885a4.502 4.502 0 0 1 4.496 4.497v123.978a4.502 4.502 0 0 1-4.496 4.497H62.548a4.502 4.502 0 0 1-4.497-4.497Zm4.498-127.19a3.216 3.216 0 0 0-3.212 3.212v123.978a3.216 3.216 0 0 0 3.212 3.212h152.885a3.216 3.216 0 0 0 3.212-3.212V78.37a3.216 3.216 0 0 0-3.212-3.212Z" fill="#3f3d56"/><path d="M41.789 224.831V100.853a4.502 4.502 0 0 1 4.496-4.497H199.17a4.502 4.502 0 0 1 4.497 4.497V224.83a4.502 4.502 0 0 1-4.497 4.497H46.285a4.502 4.502 0 0 1-4.496-4.497Z" fill="#6c63ff"/><path d="M105.285 198.815h78.052a1.592 1.592 0 0 0 .292-.023l-36.915-63.942a2.585 2.585 0 0 0-4.5 0l-24.774 42.91-1.187 2.053Z" fill="#fff"/><path opacity=".2" style="isolation:isolate" d="M105.286 198.814h26.648l-13.082-19.001-.941-1.369-.471-.684-1.187 2.053-10.967 19.001z"/><path d="M61.827 198.815h67.508l-13.082-19.002-.941-1.369-17.047-24.763a3.45 3.45 0 0 0-5.12-.306 3.082 3.082 0 0 0-.245.306Z" fill="#fff"/><circle cx="112.707" cy="138.432" r="11.563" fill="#fff"/><path fill="#3f3d56" d="M181.184 105.349h14.132v14.132h-14.132z"/><path fill="#a0616a" d="m591.685 572.817-11.214-.001-5.335-43.254 16.551.001-.002 43.254z"/><path d="m594.544 583.687-36.158-.001v-.458a14.075 14.075 0 0 1 14.074-14.073h22.085Z" fill="#2f2e41"/><path fill="#a0616a" d="m680.8 563.609-10.73 3.259-17.676-39.836 15.837-4.81 12.569 41.387z"/><path d="m686.696 573.18-34.598 10.507-.133-.438a14.075 14.075 0 0 1 9.376-17.556h.001l21.131-6.418Z" fill="#2f2e41"/><path fill="#cacaca" d="M456.25 583.415h296.391v2.05H456.25z"/><circle cx="569.259" cy="141.994" r="23.328" fill="#a0616a"/><path fill="#2f2e41" d="M675.989 528.834 652.97 538.7l-53.273-125.62-4.275 139.76-23.019-1.315-25.65-219.012 1.973-12.496 87.144 19.401 1.315 70.373 38.804 119.043zM542.807 135.206s15.127-13.812 19.73-7.893 5.92 7.235 8.55 7.235 9.208 7.235 9.208 7.235 3.289-6.577 7.235-1.316 4.603 13.154 4.603 13.154 14.47-33.542-11.18-40.12-44.066 13.812-38.146 21.705Z"/><path d="M641.79 349.942c-12.497-5.472-12.865-1.178-30.912 5.919-22.73 2.821-37.18 3.183-44.394-6.248-2.953-18.725-5.374-36.68-6.867-53.753q-.463-5.278-.802-10.45c-2.63-40.166.592-75.083 15.232-103.18l26.308-19.73 8.583 6.228c20.5 14.877 17.31 37.732 20.033 62.915Z" fill="#e6e6e6"/><path d="M822.34 382.577s38.856 50.642 11.101 73.661-43.278 37.489-43.278 37.489 1.647-99.311 32.176-111.15Z" transform="translate(-223.68 -157.268)" opacity=".2" style="isolation:isolate"/><path d="m807.263 433.22-23.966 19.908q-.464-5.278-.803-10.451l16.219-72.596Z" transform="translate(-223.68 -157.268)" opacity=".2" style="isolation:isolate"/><path d="M555.54 351.007a10.559 10.559 0 0 0 3.629-15.778l12.196-20.82-10.844-10.497-16.81 29.643a10.616 10.616 0 0 0 11.83 17.452Z" fill="#a0616a"/><path d="m566.155 336.13-19.073-15.127 24.992-63.138.567-65.813a14.986 14.986 0 0 1 9.965-13.99 14.986 14.986 0 0 1 20.004 13.917l1.033 76.409Z" fill="#e6e6e6"/></svg>
