<svg xmlns="http://www.w3.org/2000/svg" viewBox="0 0 660.04 477.556"><path d="M660.04 262.93a.84.84 0 0 1-.84.84H0v-1.68h659.2a.84.84 0 0 1 .84.84Z" fill="#106bca"/><circle cx="216.748" cy="34.02" r="24.912" fill="#ffb6b6"/><path d="m229.95 64.188-32.791 9.369-4.685 10.54-10.54 50.356v79.635s-12.881 28.106-5.855 52.699c7.51 26.287 33.962-4.74 53.87-1.199 19.909 3.54 51.528 7.054 51.528 7.054l-18.737-85.49-4.685-104.227-28.106-18.737Z" fill="#106bca"/><path d="m223.761 42.178-5.064-2.533s-1.267-11.396-3.8-13.928-2.531-3.799-2.531-3.799l3.798-5.064s-18.993 10.13-22.792 3.798 1.267-8.863 1.267-8.863l-6.331-5.065s7.597 5.065 8.863 1.266 8.864-6.376 8.864-6.376 16.59 3.754 15.259 0 3.734.045 5 1.311 12.662 13.929 13.928 12.662 7.597 2.533 6.331 3.799-1.266 2.532 0 3.799 8.863 15.194 2.532 20.259-15.194 11.396-13.928 16.46 0-16.46-11.396-17.726Z" fill="#2f2e41"/><path d="M100.958 104.899c-6.394-5.512-8.733-13.279-5.224-17.347 3.508-4.069 11.534-2.898 17.93 2.616a21.127 21.127 0 0 1 5.915 8.036l26.796 23.696-11.388 12.338-25.207-24.67a21.128 21.128 0 0 1-8.822-4.669Z" fill="#ffb6b6"/><path d="m192.755 84.5 17.652-1.605 15.48 73.826c2.949 14.067-6.272 27.8-20.41 30.396l-12.722 2.335-81.086-71.394 11.847-19.749 59.797 37.51 9.442-51.32Z" fill="#106bca"/><path d="M153.349 412.813s-14 26-13 25 18 5 18 5l10-26-15-4ZM132.685 230.817s-7.166 28.647-6.443 27.431 18.676.414 18.676.414l3.29-27.662-15.523-.183Z" fill="#ffb6b6"/><path d="M257.349 226c-31.639 4.445-60.215.57-83.5-17.688 0 0-17 57 14 63s65.5-4.312 69.5-14.312 0-31 0-31Z" fill="#2f2e41"/><path fill="#2f2e41" d="m198.349 244-34.5 81.313-16 94 21 5 37.563-86.5L257.349 255l-59-11zM193.849 220.813s-8-62-23-66c-7.313-1.95-14.15-1.762-19.238-1.056-5.127.712-9.215 4.63-10.111 9.728L127.868 241h19.276l6.205-21 16.5 28.813 24-28ZM144.849 250.813l-19.06-2-2.94 11s-31 28-15 30 31-9 31-9l22.01-12.626s-8.51-22.687-14.51-22.687-1.5 5.312-1.5 5.312ZM154.849 438.313l-19.06-2-2.94 11s-31 28-15 30 31-9 31-9l22.01-12.626S169.349 432 163.349 432s-8.5 6.313-8.5 6.313Z"/><path d="M251.351 286.928c-2.298 7.882-8.227 13.085-13.243 11.621-5.015-1.463-7.217-9.037-4.917-16.921a20.545 20.545 0 0 1 4.724-8.476l10.159-33.27 15.511 5.099-11.661 32.258c.586 3.229.39 6.552-.573 9.69Z" fill="#ffb6b6"/><path d="m262.088 83.07-8.089-2.28a92.04 92.04 0 0 0-9.475 49.085l3.992 47.22-13.172 82.998 25.816 6.679 20.344-104.158-19.416-79.544Z" fill="#106bca"/><g fill="#106bca"><path d="M104.627 212.836c-.354-1.084-3.038-.607-3.296-1.576-.257-.966 2.32-1.776 4.295-4.499.356-.49 2.601-3.584 1.74-4.885-1.632-2.466-12.988 3.676-15.714.23-.598-.757-.844-2.056-2.626-4.473-.71-.961-1.164-1.425-1.708-1.412-.77.02-1.047.985-2.259 2.732-1.817 2.62-2.473 2.292-3.67 4.439-.89 1.594-.995 2.612-1.636 2.673-.907.084-1.282-1.9-2.39-1.977-1.131-.079-2.263 1.882-2.824 3.414-1.053 2.876-.4 5.073-.256 7.263.157 2.38-.212 5.864-2.798 10.336l-24.391 38.862c5.238-7.922 20.108-29.526 26.098-37.45 1.73-2.288 3.588-4.585 6.45-5.017 2.753-.416 6.104.947 10.782.867.546-.009 2.066-.054 2.436-.86.305-.666-.454-1.245-.177-1.871.37-.84 2.036-.48 4.307-1.038 1.602-.393 2.69-1.043 3.625-1.602.282-.168 4.484-2.714 4.013-4.156Z"/><path d="M40.741 221.909c-.634-.139-1.174 1.316-1.724 1.163-.549-.153-.203-1.65-.969-3.406-.138-.316-1.009-2.31-1.896-2.263-1.681.09-1.943 7.435-4.421 7.778-.544.076-1.252-.178-2.953 0-.676.07-1.035.159-1.185.43-.213.384.18.798.689 1.897.761 1.648.41 1.875 1.119 3.082.526.896.995 1.242.84 1.574-.22.47-1.302.08-1.66.602-.365.533.271 1.654.861 2.372 1.108 1.346 2.374 1.66 3.49 2.221 1.214.61 2.818 1.796 4.267 4.355L49.234 264.9c-2.376-4.857-8.69-18.388-10.85-23.615-.624-1.51-1.215-3.084-.601-4.613.59-1.472 2.226-2.723 3.536-5.042.153-.27.57-1.03.281-1.444-.239-.342-.742-.136-.97-.453-.305-.424.353-1.138.734-2.413.27-.9.264-1.621.26-2.242-.002-.187-.039-2.983-.883-3.168ZM52.749 227.566l.378-3.493.232-.22c1.074-1.014 1.745-2.089 1.997-3.195.04-.176.071-.354.103-.535.126-.718.282-1.611.972-2.538.387-.517 1.409-1.685 2.463-1.277.285.107.477.291.61.487l.105-.105a3.841 3.841 0 0 1 1.08-.76c.236-.12.48-.244.892-.574.18-.144.325-.274.447-.384.37-.33.843-.717 1.491-.564.688.188.923.844 1.08 1.277.278.774.364 1.307.421 1.66.02.128.045.274.062.32.15.38 2.039.478 2.749.519 1.596.086 2.978.161 3.31 1.255.239.782-.258 1.635-1.52 2.602a5.7 5.7 0 0 1-1.127.664c.21.2.378.47.389.838.023.873-.872 1.542-2.66 1.993-.443.114-1.04.264-1.823.226a6.798 6.798 0 0 1-.965-.128 1.15 1.15 0 0 1-.252.475c-.398.455-1.04.57-1.912.314-.963-.268-1.724-.633-2.395-.954-.586-.28-1.092-.518-1.516-.583-.789-.11-1.525.377-2.405 1.025l-2.206 1.655ZM59.045 207.671l-3.474.52-.272-.169c-1.253-.78-2.463-1.158-3.597-1.12-.18.005-.36.02-.544.035-.726.061-1.63.137-2.702-.296-.598-.243-1.986-.935-1.86-2.059.032-.302.162-.534.317-.713l-.128-.075a3.842 3.842 0 0 1-1.01-.852c-.176-.198-.357-.402-.78-.717-.186-.138-.349-.245-.485-.335-.413-.274-.908-.634-.924-1.3.008-.712.582-1.106.962-1.367a8.416 8.416 0 0 1 1.498-.83 2.64 2.64 0 0 0 .295-.141c.328-.242-.056-2.092-.196-2.79-.322-1.566-.6-2.922.374-3.52.696-.43 1.647-.165 2.903.81.39.303.691.63.928.921.139-.254.358-.484.712-.588.838-.243 1.712.452 2.602 2.067.222.4.52.94.68 1.706a6.8 6.8 0 0 1 .123.967c.161 0 .338.031.522.123.541.27.816.861.79 1.77-.016 1-.176 1.828-.316 2.558-.121.638-.224 1.188-.18 1.615.094.79.751 1.379 1.602 2.066l2.16 1.714ZM59.513 197.237l.379-3.493.232-.22c1.073-1.014 1.745-2.089 1.997-3.195.04-.176.071-.354.103-.535.125-.718.281-1.611.972-2.539.386-.516 1.408-1.684 2.463-1.276.284.107.476.291.61.487l.104-.105a3.841 3.841 0 0 1 1.081-.76c.236-.12.48-.244.891-.574.181-.144.326-.274.448-.384.37-.33.843-.717 1.491-.564.687.188.923.844 1.079 1.277.279.774.365 1.307.422 1.66.02.128.044.274.062.32.15.38 2.038.478 2.748.519 1.597.086 2.979.161 3.31 1.255.24.782-.258 1.635-1.519 2.602a5.7 5.7 0 0 1-1.127.664c.21.2.378.47.388.838.023.873-.871 1.542-2.659 1.993-.444.114-1.041.264-1.823.226a6.798 6.798 0 0 1-.966-.128 1.15 1.15 0 0 1-.251.475c-.398.455-1.04.57-1.913.314-.962-.268-1.723-.633-2.394-.954-.587-.28-1.092-.518-1.516-.583-.79-.11-1.525.377-2.405 1.025l-2.206 1.655Z"/><path d="m48.247 264.162-.615-.607.012-.863-.012.863-.853-.09c.004-.08-.002-.268-.008-.562-.033-1.607-.135-6.497.546-14.01.475-5.246 1.27-10.57 2.362-15.828 1.093-5.266 2.228-9.185 3.14-12.334a397.533 397.533 0 0 1 2.059-6.823c1.809-5.863 3.516-11.402 4.574-17.72.237-1.41.728-4.345-.278-7.81-.584-2.01-1.584-3.901-2.972-5.62l1.344-1.086c1.532 1.9 2.638 3.994 3.286 6.226 1.116 3.841.58 7.04.323 8.577-1.076 6.43-2.801 12.02-4.628 17.94-.674 2.187-1.366 4.43-2.05 6.796-.904 3.12-2.028 7.005-3.108 12.203a138.917 138.917 0 0 0-2.334 15.634c-.671 7.419-.57 12.236-.537 13.819.017.845.02 1.022-.251 1.295Z"/><path d="M52.514 184.745a3.072 3.072 0 0 1-.208-.053c-1.418-.397-2.555-1.553-3.38-3.433-.387-.884-.479-1.815-.66-3.671-.029-.286-.155-1.734 0-3.653.1-1.254.236-1.758.577-2.153.379-.44.89-.693 1.429-.82a.976.976 0 0 1 .177-.482c.443-.639 1.186-.376 1.59-.24.203.073.456.166.74.214.448.077.715-.001 1.12-.118.386-.113.867-.253 1.532-.24 1.312.017 2.284.607 2.604.801 1.687 1.014 2.27 2.631 2.943 4.503.134.376.579 1.732.682 3.48.075 1.26-.09 1.776-.28 2.144-.386.759-.978 1.11-2.448 1.85-1.536.775-2.307 1.163-2.938 1.362-1.47.462-2.394.751-3.48.51Z"/></g><path d="M446.733 38.543s9.537 5.593 6.41 11.124-7.489 13.065-4.53 15.438c2.957 2.373 7.841 12.834 7.841 12.834s20.845-2.912 18.888 13.28c-1.957 16.193-11.75 18.401-3.356 25.524 8.394 7.124-8.723 15.644-8.723 15.644s-11.817-3.683-14.513-15.007 2.403 8.659.693 10.092-8.35 10.877-13.05-1.68c-4.698-12.557-.045-17.425-6.254-24.836s-10.43-19.397-10.245-21.493-7.102-21.215 4.114-28.672c11.216-7.456 22.725-12.248 22.725-12.248Z" fill="#2f2e41"/><path d="M540.67 214.233c5.537 4.583 12.39 5.44 15.305 1.916 2.916-3.524.79-10.095-4.75-14.678a17.987 17.987 0 0 0-7.586-3.821l-23.706-19.12-8.735 11.315 24.297 17.648a17.988 17.988 0 0 0 5.175 6.74Z" fill="#ffb6b6"/><path d="M469.622 109.958s-18.603-12.442-24.695-6.341c-6.092 6.1-4.637 21.338-4.637 21.338l48.785 56.856 38.685 24.59 10.373-16.243-32.523-29.021-35.988-51.18Z" fill="#3f3d56"/><path fill="#ffb6b6" d="m442.353 83.008 6.75 23.992h-37.048l12.2-29.562 18.098 5.57z"/><path opacity=".1" d="m442.353 83.008 6.75 23.992h-37.048l12.2-29.562 18.098 5.57z"/><path d="M361.56 260.15c-.478 7.17 2.834 13.23 7.398 13.534s8.65-5.263 9.128-12.437c.23-2.863-.229-5.74-1.338-8.39l1.642-30.41-14.287-.467-.103 30.03a17.989 17.989 0 0 0-2.44 8.14Z" fill="#ffb6b6"/><path d="M404.581 141.531s-.79-22.366-9.301-23.739-20.02 8.72-20.02 8.72l-17.58 72.825 2.682 45.76 19.242-1.087 4.516-43.354 20.461-59.125Z" fill="#3f3d56"/><path d="M487.103 408.813s14 26 13 25-18 5-18 5l-10-26 15-4ZM507.766 226.817s7.167 28.647 6.444 27.431-18.677.414-18.677.414L492.243 227l15.523-.183Z" fill="#ffb6b6"/><path d="M452.103 99H417.15l-38.047 26-11 91 6 18 11 21s-11-46 16-28 29 21 29 21l36-18 13.5-74.5-10-41-17.5-15.5Z" fill="#3f3d56"/><path d="M383.103 222c31.638 4.445 60.215.57 83.5-17.688 0 0 17 57-14 63s-65.5-4.312-69.5-14.312 0-31 0-31Z" fill="#2f2e41"/><path fill="#2f2e41" d="m442.103 240 34.5 81.313 16 94-21 5-37.563-86.5L383.103 251l59-11zM446.603 216.813s8-62 23-66c7.312-1.95 14.15-1.762 19.237-1.056 5.128.712 9.215 4.63 10.112 9.728L512.583 237h-19.276l-6.204-21-16.5 28.813-24-28ZM495.603 246.813l19.059-2 2.94 11s31 28 15 30-31-9-31-9l-22.01-12.626s8.51-22.687 14.51-22.687 1.5 5.312 1.5 5.312ZM485.603 434.313l19.059-2 2.94 11s31 28 15 30-31-9-31-9l-22.01-12.626s1.51-23.687 7.51-23.687 8.5 6.313 8.5 6.313Z"/><circle cx="433.551" cy="65.911" r="22.311" fill="#ffb6b6"/><path d="M442.103 40.997s3.719 10.412-2.23 12.643-14.13 5.206-13.387 8.924-2.231 14.874-2.231 14.874 17.848 11.155 5.95 22.31c-11.9 11.156-20.824 6.56-18.965 17.41s-16.733 6.389-16.733 6.389-6.693-10.412-1.487-20.824c5.206-10.411-3.719 8.181-5.95 8.181s-13.386 2.975-8.924-9.668 11.155-13.386 11.155-23.054 4.463-21.567 5.95-23.055 8.18-20.823 21.567-19.335 25.285 5.205 25.285 5.205Z" fill="#2f2e41"/><path d="M247.103 408.813s-14 26-13 25 18 5 18 5l10-26-15-4Z" fill="#a0616a"/><path d="M351.103 222c-31.639 4.445-60.216.57-83.5-17.688 0 0-17 57 14 63s65.5-4.312 69.5-14.312 0-31 0-31Z" fill="#2f2e41"/><path fill="#2f2e41" d="m292.103 240-34.5 81.313-16 94 21 5 37.563-86.5L351.103 251l-59-11zM248.603 434.313l-19.06-2-2.94 11s-31 28-15 30 31-9 31-9l22.01-12.626S263.103 428 257.103 428s-8.5 6.313-8.5 6.313Z"/><path d="M278.714 395.133s-5.296 29.051-4.653 27.791 18.665-.797 18.665-.797l1.49-27.816-15.502.822Z" fill="#a0616a"/><path fill="#2f2e41" d="m269.44 220.672-7.732 87.99 13.78 94.351 21.518-1.723 9.045-93.869 22.905-94.487-59.516 7.738zM288.008 418.927l-18.746 3.977.596 11.37s-20.85 36.199-5.013 33.165c15.836-3.034 26.71-18.125 26.71-18.125l17.042-18.8s-8.744-22.065-14.45-20.214-6.139 8.627-6.139 8.627ZM287.472 38.543s-9.536 5.593-6.409 11.124 7.488 13.065 4.53 15.438-7.842 12.834-7.842 12.834-20.845-2.912-18.888 13.28 11.75 18.401 3.356 25.524c-8.393 7.124 8.724 15.644 8.724 15.644s11.817-3.683 14.513-15.007-2.404 8.659-.694 10.092 8.351 10.877 13.05-1.68.046-17.425 6.255-24.836c6.208-7.41 10.43-19.397 10.245-21.493s7.102-21.215-4.114-28.672c-11.217-7.456-22.726-12.248-22.726-12.248Z"/><path fill="#a0616a" d="M291.853 83.008 285.103 107h37.047l-12.199-29.562-18.098 5.57z"/><path opacity=".1" d="M291.853 83.008 285.103 107h37.047l-12.199-29.562-18.098 5.57z"/><path d="M372.645 260.15c.479 7.17-2.834 13.23-7.398 13.534s-8.65-5.263-9.128-12.437c-.23-2.863.23-5.74 1.339-8.39l-1.643-30.41 14.288-.467.102 30.03a17.989 17.989 0 0 1 2.44 8.14Z" fill="#a0616a"/><path d="M329.624 141.531s.79-22.366 9.301-23.739c8.512-1.373 20.02 8.72 20.02 8.72l17.58 72.825-2.682 45.76-19.241-1.087-4.516-43.354-20.462-59.125Z" fill="#6c63ff"/><path d="M282.103 99h34.952l38.048 26 11 91-6 18-11 21s11-46-16-28l-.803.536c-17.38 11.608-40.314 10.416-56.402-2.925L263.103 214l7-35-5.5-64.5 17.5-15.5Z" fill="#6c63ff"/><path d="M194.642 212.93c-5.606 4.497-12.471 5.25-15.333 1.683-2.862-3.569-.637-10.106 4.972-14.605a17.987 17.987 0 0 1 7.644-3.705l23.994-18.758 8.562 11.447-24.562 17.277a17.988 17.988 0 0 1-5.277 6.66Z" fill="#a0616a"/><path d="M267.266 109.746s18.79-12.157 24.789-5.965 4.312 21.406 4.312 21.406l-49.644 56.109-39.054 23.998-10.125-16.398 32.96-28.523 36.762-50.627Z" fill="#6c63ff"/><circle cx="300.654" cy="65.911" r="22.311" fill="#a0616a"/><path d="M289.548 50.956S286.26 40 291.739 40s27.39 1.096 29.582 3.287S349.441 67.47 334.103 85c-15.34 17.53 0 26 0 26s11.322 26.51.365 28.702c-10.956 2.191-55.897-10.338-44.92-30.678 11.912-22.072 17.455-56.91 0-58.068Z" fill="#2f2e41"/><g fill="#106bca"><path d="M654.627 213.836c-.354-1.084-3.038-.607-3.296-1.576-.257-.966 2.32-1.776 4.295-4.499.356-.49 2.601-3.584 1.74-4.885-1.632-2.466-12.988 3.676-15.714.23-.598-.757-.844-2.056-2.626-4.473-.71-.961-1.164-1.425-1.708-1.412-.77.02-1.047.985-2.259 2.732-1.817 2.62-2.473 2.292-3.67 4.439-.89 1.594-.995 2.612-1.636 2.673-.907.084-1.282-1.9-2.39-1.977-1.131-.079-2.263 1.882-2.824 3.414-1.053 2.876-.4 5.073-.256 7.263.157 2.38-.212 5.864-2.798 10.336l-24.391 38.862c5.238-7.922 20.108-29.526 26.098-37.45 1.73-2.288 3.588-4.585 6.45-5.017 2.753-.416 6.104.947 10.781.867.547-.009 2.067-.054 2.437-.86.305-.666-.454-1.245-.177-1.871.37-.84 2.036-.48 4.307-1.038 1.602-.393 2.69-1.043 3.625-1.602.282-.168 4.484-2.714 4.013-4.156Z"/><path d="M590.741 222.909c-.634-.139-1.174 1.316-1.724 1.163-.549-.153-.203-1.65-.969-3.406-.138-.316-1.009-2.31-1.896-2.263-1.681.09-1.943 7.435-4.421 7.778-.544.076-1.252-.178-2.953 0-.676.07-1.035.159-1.185.43-.213.384.18.798.689 1.897.761 1.648.41 1.875 1.119 3.082.526.896.995 1.242.84 1.574-.22.47-1.302.08-1.66.602-.365.533.271 1.654.861 2.372 1.108 1.346 2.374 1.66 3.49 2.221 1.214.61 2.818 1.796 4.267 4.355l12.035 23.185c-2.376-4.857-8.69-18.388-10.85-23.615-.624-1.51-1.215-3.084-.601-4.613.59-1.472 2.226-2.723 3.536-5.042.153-.27.57-1.03.281-1.444-.239-.342-.742-.136-.97-.453-.305-.424.353-1.138.734-2.413.27-.9.264-1.621.26-2.242-.002-.187-.039-2.983-.883-3.168ZM602.749 228.566l.378-3.493.232-.22c1.074-1.014 1.745-2.089 1.997-3.195.04-.176.071-.354.103-.535.126-.718.282-1.611.972-2.538.387-.517 1.409-1.685 2.463-1.277.285.107.477.291.61.487l.105-.105a3.841 3.841 0 0 1 1.08-.76c.236-.12.48-.244.892-.574.18-.144.325-.274.447-.384.37-.33.843-.717 1.491-.564.688.188.923.844 1.08 1.277.278.774.364 1.307.421 1.66.02.128.045.274.062.32.15.38 2.039.478 2.749.519 1.596.086 2.978.161 3.31 1.255.239.782-.258 1.635-1.52 2.602a5.7 5.7 0 0 1-1.127.664c.21.2.378.47.389.838.023.873-.872 1.542-2.66 1.993-.443.114-1.04.264-1.823.226a6.798 6.798 0 0 1-.965-.128 1.15 1.15 0 0 1-.252.475c-.398.455-1.04.57-1.912.314-.963-.268-1.724-.633-2.395-.954-.586-.28-1.092-.518-1.516-.583-.789-.11-1.525.377-2.405 1.025l-2.206 1.655ZM609.045 208.671l-3.474.52-.272-.169c-1.253-.78-2.463-1.158-3.597-1.12-.18.005-.36.02-.544.035-.726.061-1.63.137-2.702-.296-.598-.243-1.986-.935-1.86-2.059.032-.302.162-.534.317-.713l-.128-.075a3.842 3.842 0 0 1-1.01-.852c-.176-.198-.357-.402-.78-.717-.186-.138-.349-.245-.485-.335-.414-.274-.908-.634-.924-1.3.008-.712.582-1.106.962-1.367a8.416 8.416 0 0 1 1.498-.83 2.64 2.64 0 0 0 .295-.141c.328-.242-.056-2.092-.196-2.79-.322-1.566-.6-2.922.374-3.52.696-.43 1.647-.165 2.903.81.39.303.691.63.928.921.139-.254.358-.484.712-.588.838-.243 1.712.452 2.602 2.067.222.4.52.94.68 1.706a6.8 6.8 0 0 1 .123.967c.161 0 .338.031.522.123.541.27.816.861.79 1.77-.016 1-.176 1.828-.316 2.558-.121.638-.224 1.188-.18 1.615.094.79.751 1.379 1.602 2.066l2.16 1.714ZM609.513 198.237l.379-3.493.232-.22c1.073-1.014 1.745-2.089 1.997-3.195.04-.176.071-.354.103-.535.125-.718.281-1.611.972-2.539.386-.516 1.408-1.684 2.463-1.276.284.107.476.291.61.487l.104-.105a3.841 3.841 0 0 1 1.081-.76c.236-.12.48-.244.891-.574.181-.144.326-.274.448-.384.37-.33.843-.717 1.491-.564.687.188.923.844 1.079 1.277.279.774.365 1.307.422 1.66.02.128.044.274.062.32.15.38 2.038.478 2.748.519 1.597.086 2.979.161 3.31 1.255.24.782-.258 1.635-1.519 2.602a5.7 5.7 0 0 1-1.127.664c.21.2.378.47.388.838.023.873-.871 1.542-2.659 1.993-.444.114-1.041.264-1.823.226a6.798 6.798 0 0 1-.966-.128 1.15 1.15 0 0 1-.251.475c-.398.455-1.04.57-1.913.314-.962-.268-1.723-.633-2.394-.954-.587-.28-1.092-.518-1.516-.583-.79-.11-1.525.377-2.405 1.025l-2.206 1.655Z"/><path d="m598.247 265.162-.615-.607.011-.863-.01.863-.854-.09c.004-.08-.002-.268-.008-.562-.033-1.607-.135-6.497.546-14.01.475-5.246 1.27-10.57 2.362-15.828 1.093-5.266 2.228-9.185 3.14-12.334a397.533 397.533 0 0 1 2.059-6.823c1.809-5.863 3.516-11.402 4.574-17.72.237-1.41.728-4.345-.278-7.81-.584-2.01-1.584-3.901-2.972-5.62l1.344-1.086c1.532 1.9 2.638 3.994 3.286 6.226 1.116 3.841.58 7.04.323 8.577-1.076 6.43-2.801 12.02-4.628 17.94-.674 2.187-1.366 4.43-2.05 6.796-.904 3.12-2.028 7.005-3.108 12.203a138.917 138.917 0 0 0-2.334 15.634c-.671 7.419-.57 12.236-.537 13.819.017.845.02 1.022-.251 1.295Z"/><path d="M602.514 185.745a3.072 3.072 0 0 1-.208-.053c-1.418-.397-2.555-1.553-3.38-3.433-.387-.884-.479-1.815-.66-3.671-.029-.286-.155-1.734 0-3.653.1-1.254.236-1.758.577-2.153.379-.44.89-.693 1.429-.82a.976.976 0 0 1 .177-.482c.443-.639 1.186-.376 1.59-.24.203.073.456.166.74.214.448.077.715-.001 1.12-.118.386-.113.867-.253 1.532-.24 1.312.017 2.284.607 2.604.801 1.687 1.014 2.27 2.631 2.943 4.503.134.376.579 1.732.682 3.48.075 1.26-.09 1.776-.28 2.144-.386.759-.978 1.11-2.448 1.85-1.536.775-2.307 1.163-2.938 1.362-1.47.462-2.394.751-3.48.51Z"/></g><path d="M167.16 204.692 166.03 169.1a2.066 2.066 0 0 1 .623-1.544 2.067 2.067 0 0 1 1.561-.58l28.245 1.694c.57.034 1.106.307 1.468.749.364.441.528 1.019.451 1.585l-4.778 35.376a2.067 2.067 0 0 1-2.179 1.782l-22.338-1.478a2.054 2.054 0 0 1-1.925-1.992Z" fill="#6c63ff"/><path d="M166.066 165.77c.396-.042.925-.093 1.56-.146-.17-.317-.24-.69-.166-1.075l.504-2.666a1.631 1.631 0 0 1 1.386-1.315c4.16-.556 18.463-2.065 27.47 2.021.564.256.926.817.944 1.436l.082 2.844c.01.352-.092.678-.27.948.748.201 1.494.414 2.235.646.464.146.796.555.852 1.038l.14 1.212a1.238 1.238 0 0 1-1.314 1.377l-33.766-2.28a1.238 1.238 0 0 1-1.12-1.533l.39-1.573c.125-.506.554-.88 1.073-.934Z" fill="#3f3d56"/><path d="M82.16 103.692 81.03 68.1a2.066 2.066 0 0 1 .623-1.544 2.067 2.067 0 0 1 1.561-.58l28.245 1.694c.57.034 1.106.307 1.468.749.364.441.528 1.019.451 1.585l-4.778 35.376a2.067 2.067 0 0 1-2.179 1.782l-22.338-1.478a2.054 2.054 0 0 1-1.925-1.992Z" fill="#6c63ff"/><path d="M81.066 64.77c.396-.042.925-.093 1.56-.146-.17-.317-.24-.69-.166-1.075l.504-2.666a1.631 1.631 0 0 1 1.386-1.315c4.16-.556 18.463-2.065 27.47 2.021.564.256.926.817.944 1.436l.082 2.844c.01.352-.092.678-.27.948.748.201 1.494.414 2.235.646.464.146.796.555.852 1.038l.14 1.212a1.238 1.238 0 0 1-1.314 1.377l-33.766-2.28a1.238 1.238 0 0 1-1.12-1.533l.39-1.573c.125-.506.554-.88 1.073-.934Z" fill="#3f3d56"/><path d="M525.16 213.692 524.03 178.1a2.066 2.066 0 0 1 .624-1.544 2.067 2.067 0 0 1 1.56-.58l28.245 1.694c.57.034 1.106.307 1.468.749.364.441.528 1.019.451 1.585l-4.778 35.376a2.067 2.067 0 0 1-2.179 1.782l-22.338-1.478a2.054 2.054 0 0 1-1.925-1.992Z" fill="#6c63ff"/><path d="M524.066 174.77c.396-.042.925-.093 1.56-.146-.17-.317-.24-.69-.166-1.075l.504-2.666a1.631 1.631 0 0 1 1.386-1.315c4.16-.556 18.463-2.065 27.47 2.021.564.256.926.817.944 1.436l.082 2.844c.01.352-.092.678-.27.948.748.201 1.494.414 2.235.646.464.146.796.555.852 1.038l.14 1.212a1.238 1.238 0 0 1-1.314 1.377l-33.766-2.28a1.238 1.238 0 0 1-1.12-1.533l.39-1.573c.125-.506.554-.88 1.073-.934Z" fill="#3f3d56"/></svg>
